<svg id="Group_2" data-name="Group 2" xmlns="http://www.w3.org/2000/svg" xmlns:xlink="http://www.w3.org/1999/xlink" width="31.986" height="31.107" viewBox="0 0 31.986 31.107">
  <defs>
    <clipPath id="clip-path">
      <rect id="Rectangle_4" data-name="Rectangle 4" width="31.986" height="31.107" fill="#fff"/>
    </clipPath>
  </defs>
  <g id="Group_1" data-name="Group 1" clip-path="url(#clip-path)">
    <path id="Path_184" data-name="Path 184" d="M0,1.071A1.565,1.565,0,0,1,1.727,0C2.866.036,4.008.009,5.149.01A1.443,1.443,0,0,1,6.779,1.2q.559,1.68,1.121,3.36a1.027,1.027,0,0,0,1.205.872q10.632,0,21.263,0A2.6,2.6,0,0,1,31,5.475a1.341,1.341,0,0,1,.9,1.8c-.453,1.382-.914,2.761-1.374,4.141Q29.463,14.61,28.4,17.8a1.409,1.409,0,0,1-1.565,1.137H12.856c-.816,0-1.016.154-1.216.938-.07.276-.148.55-.209.828a.727.727,0,0,0,.679.936,3.535,3.535,0,0,0,.38.007q7.827,0,15.654,0a2.325,2.325,0,0,1,.716.085,1.322,1.322,0,0,1,.864,1.485,1.337,1.337,0,0,1-1.243,1.114c-.084.005-.169.005-.253.005q-7.97,0-15.939,0a3.478,3.478,0,0,1-3.509-2.8,3.394,3.394,0,0,1,.052-1.6c.636-2.443.593-2.266-.19-4.6Q6.664,9.436,4.7,3.524a.981.981,0,0,0-1.121-.806c-.634,0-1.269-.026-1.9.006A1.5,1.5,0,0,1,0,1.641Z" transform="translate(0 0.001)" fill="#fff"/>
    <path id="Path_185" data-name="Path 185" d="M98.321,309.686a8.015,8.015,0,0,1-.761-.281,2.695,2.695,0,1,1,1.88.187c-.1.027-.2.062-.295.093Z" transform="translate(-87.927 -278.579)" fill="#fff"/>
    <path id="Path_186" data-name="Path 186" d="M290.366,309.686a8.016,8.016,0,0,1-.761-.281,2.695,2.695,0,1,1,1.88.187c-.1.027-.2.062-.295.093Z" transform="translate(-263.747 -278.579)" fill="#fff"/>
  </g>
</svg>
