<svg xmlns="http://www.w3.org/2000/svg" width="39.693" height="39.693" viewBox="0 0 39.693 39.693">
  <path id="Union_12" data-name="Union 12" d="M-3402.305,81.728V72.373h-9.355A2.339,2.339,0,0,1-3414,70.034a2.339,2.339,0,0,1,2.339-2.339h9.355V58.339A2.339,2.339,0,0,1-3399.967,56a2.339,2.339,0,0,1,2.339,2.339v9.356h9.355a2.34,2.34,0,0,1,2.339,2.339,2.34,2.34,0,0,1-2.339,2.339h-9.355v9.355a2.339,2.339,0,0,1-2.339,2.339A2.339,2.339,0,0,1-3402.305,81.728Z" transform="translate(2473.507 2374.464) rotate(45)" fill="#fff"/>
</svg>
