<svg xmlns="http://www.w3.org/2000/svg" width="23.255" height="16.763" viewBox="0 0 23.255 16.763">
  <path id="email_1_" data-name="email (1)" d="M96.4,149.555q-4.285,0-8.569,0a2.961,2.961,0,0,1-3-2.526,3.33,3.33,0,0,1-.033-.556q0-5.3,0-10.6a2.968,2.968,0,0,1,3.084-3.08q8.544,0,17.087,0a2.964,2.964,0,0,1,3.081,3.082q0,5.3,0,10.6a2.966,2.966,0,0,1-3.083,3.081Q100.684,149.559,96.4,149.555Zm-9.977-12.292v.3c0,2.949.017,5.9-.01,8.847a1.451,1.451,0,0,0,1.524,1.529c5.661-.019,11.323-.01,16.984-.01a1.352,1.352,0,0,0,1.509-1.5q0-4.449,0-8.9c0-.087-.007-.174-.013-.289-.111.062-.184.1-.255.143q-3.923,2.347-7.846,4.693a3.448,3.448,0,0,1-3.745.018c-2-1.179-3.992-2.37-5.987-3.556Zm19.954-1.844a1.206,1.206,0,0,0-.034-.139,1.364,1.364,0,0,0-1.408-.863H87.92c-.076,0-.152,0-.228,0a1.335,1.335,0,0,0-1.145.763c-.1.182-.069.285.123.4,2.859,1.684,5.718,3.368,8.563,5.076a2.066,2.066,0,0,0,2.327,0c2.643-1.586,5.3-3.148,7.95-4.72C105.8,135.767,106.086,135.593,106.376,135.42Z" transform="translate(-84.798 -132.793)" fill="#a0a0a0" fill-rule="evenodd"/>
</svg>
