<svg id="Group_4" data-name="Group 4" xmlns="http://www.w3.org/2000/svg" xmlns:xlink="http://www.w3.org/1999/xlink" width="29.999" height="27.45" viewBox="0 0 29.999 27.45">
  <defs>
    <clipPath id="clip-path">
      <rect id="Rectangle_5" data-name="Rectangle 5" width="29.999" height="27.45" fill="#fff"/>
    </clipPath>
  </defs>
  <g id="Group_3" data-name="Group 3" clip-path="url(#clip-path)">
    <path id="Path_187" data-name="Path 187" d="M0,9.632V8.109a2.5,2.5,0,0,0,.051-.252A9.062,9.062,0,0,1,1.659,3.489,7.807,7.807,0,0,1,9.89.2,10.893,10.893,0,0,1,14.38,2.5c.21.169.422.335.632.5.136-.1.246-.184.354-.268A13.89,13.89,0,0,1,18.74.65a7.612,7.612,0,0,1,6.924.383A9.081,9.081,0,0,1,29.9,10.171a10.712,10.712,0,0,1-1.976,4.822A64.621,64.621,0,0,1,17.871,25.824a15.6,15.6,0,0,1-2.051,1.393,1.6,1.6,0,0,1-1.648.011,12.525,12.525,0,0,1-2.6-1.885A73.712,73.712,0,0,1,2.8,16.017,12.542,12.542,0,0,1,.265,11.125C.149,10.633.087,10.13,0,9.632" transform="translate(0 0)" fill="#fff"/>
  </g>
</svg>
