<svg xmlns="http://www.w3.org/2000/svg" width="17.842" height="21.403" viewBox="0 0 17.842 21.403">
  <g id="Group_88" data-name="Group 88" transform="translate(-789.109 -313)">
    <path id="Path_26" data-name="Path 26" d="M88.766,260.868c-.25-.053-.5-.09-.748-.161a3.345,3.345,0,0,1-2.537-3.2,11.42,11.42,0,0,1,.741-4.833A4.444,4.444,0,0,1,88.2,250.28a3.908,3.908,0,0,1,1.947-.467,1.5,1.5,0,0,1,.639.22c.317.172.611.387.919.577a4.757,4.757,0,0,0,5.37,0c.248-.154.5-.3.735-.477a1.78,1.78,0,0,1,1.408-.286,3.964,3.964,0,0,1,3.03,2.177,8.945,8.945,0,0,1,.974,3.471,17.225,17.225,0,0,1,.082,1.876,3.423,3.423,0,0,1-3.161,3.461.814.814,0,0,0-.136.039Zm5.634-1.254v0c1.762,0,3.525.015,5.287,0a2.232,2.232,0,0,0,2.372-2.433,16.255,16.255,0,0,0-.09-1.668,7.687,7.687,0,0,0-.8-2.855,2.761,2.761,0,0,0-2-1.549.911.911,0,0,0-.784.153,6.34,6.34,0,0,1-.611.4,5.943,5.943,0,0,1-6.114.361c-.5-.244-.952-.575-1.428-.863a.424.424,0,0,0-.207-.086,2.561,2.561,0,0,0-1.787.74,4.1,4.1,0,0,0-.887,1.426,10.753,10.753,0,0,0-.614,4.207,2.072,2.072,0,0,0,1.043,1.821,2.893,2.893,0,0,0,1.526.354Z" transform="translate(703.643 73.535)" fill="#a0a0a0" fill-rule="evenodd"/>
    <path id="Path_27" data-name="Path 27" d="M160.7,51.8c.278.056.558.1.834.168a5.19,5.19,0,0,1,3.771,4.189,5.147,5.147,0,0,1-4.764,5.937,5.155,5.155,0,0,1-1.4-10.188c.2-.04.4-.071.593-.106Zm3.415,5.149a3.9,3.9,0,1,0-3.9,3.908A3.885,3.885,0,0,0,164.115,56.949Z" transform="translate(637.687 261.2)" fill="#a0a0a0" fill-rule="evenodd"/>
  </g>
</svg>
