<svg xmlns="http://www.w3.org/2000/svg" width="15.291" height="21.406" viewBox="0 0 15.291 21.406">
  <g id="Group_87" data-name="Group 87" transform="translate(-790.401 -495)">
    <path id="Path_24" data-name="Path 24" d="M140.349,96.119h9.013a2.3,2.3,0,0,1,2.444,2.452q0,3.437,0,6.874a4.343,4.343,0,0,1-3.582,4.348,4.443,4.443,0,0,1-.83.072q-3.222.009-6.444,0a4.354,4.354,0,0,1-4.42-4.414c0-2.251.036-4.5-.014-6.754a2.4,2.4,0,0,1,2.3-2.6c0-.091,0-.184,0-.277.014-.946-.031-1.9.054-2.837a5.045,5.045,0,0,1,4.065-4.4,5.535,5.535,0,0,1,4.416.85,5.033,5.033,0,0,1,2.155,4.085.765.765,0,1,1-1.525.036,3.6,3.6,0,0,0-3.624-3.55,4.459,4.459,0,0,0-1.756.26,3.6,3.6,0,0,0-2.257,3.33c0,.772,0,1.543,0,2.315C140.349,95.972,140.349,96.033,140.349,96.119Zm3.819,1.528h-5.227a.778.778,0,0,0-.883.877q0,3.473,0,6.946a2.823,2.823,0,0,0,2.875,2.87q3.234,0,6.468,0a2.823,2.823,0,0,0,2.876-2.868q0-3.473,0-6.946a.783.783,0,0,0-.883-.878Z" transform="translate(653.886 406.538)" fill="#a0a0a0" fill-rule="evenodd"/>
    <path id="Path_25" data-name="Path 25" d="M233.465,272.8c0-.366-.007-.732,0-1.1a.379.379,0,0,0-.169-.354,1.5,1.5,0,0,1-.438-1.881,1.527,1.527,0,0,1,2.891.76,1.451,1.451,0,0,1-.611,1.137.335.335,0,0,0-.152.314c.007.739,0,1.479,0,2.219a.767.767,0,1,1-1.527,0C233.463,273.528,233.465,273.163,233.465,272.8Z" transform="translate(563.825 237.85)" fill="#a0a0a0" fill-rule="evenodd"/>
  </g>
</svg>
