<svg xmlns="http://www.w3.org/2000/svg" xmlns:xlink="http://www.w3.org/1999/xlink" width="22" height="22" viewBox="0 0 22 22">
  <defs>
    <clipPath id="clip-path">
      <rect id="Rectangle_960" data-name="Rectangle 960" width="22" height="22" transform="translate(0.009 -0.089)" fill="#ff5252"/>
    </clipPath>
  </defs>
  <g id="Group_753" data-name="Group 753" transform="translate(-0.009 0.089)">
    <g id="Group_752" data-name="Group 752" transform="translate(0)" clip-path="url(#clip-path)">
      <path id="Path_4115" data-name="Path 4115" d="M21.822,6.024V16.186a4.272,4.272,0,0,1-.038.513v0a5.659,5.659,0,0,1-3.945,4.831,3.725,3.725,0,0,1-.457.127,7.29,7.29,0,0,1-1.562.163H5.639a4.2,4.2,0,0,1-.5-.035h0A5.662,5.662,0,0,1,.29,17.838a3.684,3.684,0,0,1-.127-.456A7.293,7.293,0,0,1,0,15.823V5.674a5.561,5.561,0,0,1,.04-.591v0A5.76,5.76,0,0,1,4.061.26c.1-.029.2-.054.3-.078A7.53,7.53,0,0,1,6.038,0H16.18A4.392,4.392,0,0,1,16.7.037h0a5.657,5.657,0,0,1,4.811,3.885,3.756,3.756,0,0,1,.142.5,7.483,7.483,0,0,1,.168,1.6m-3.836,4.891q0-1.587,0-3.175a3.833,3.833,0,0,0-3.9-3.9q-3.185,0-6.371,0a3.9,3.9,0,0,0-.741.065A3.824,3.824,0,0,0,3.836,7.731q0,3.164,0,6.328a3.834,3.834,0,0,0,3.917,3.926q3.153,0,6.307,0a3.834,3.834,0,0,0,3.926-3.917q0-1.577,0-3.153" transform="translate(0.227 0)" fill="#ff5252"/>
      <path id="Path_4116" data-name="Path 4116" d="M131.572,125.772q0,1.587,0,3.174a2.558,2.558,0,0,1-2.627,2.623q-3.174,0-6.348,0a2.558,2.558,0,0,1-2.617-2.611q0-3.185,0-6.369a2.557,2.557,0,0,1,2.616-2.612q3.185,0,6.369,0a2.556,2.556,0,0,1,2.607,2.6c0,1.065,0,2.13,0,3.2m-8.993,0a3.2,3.2,0,1,0,3.2-3.193,3.2,3.2,0,0,0-3.2,3.193m7.5-3.654a.639.639,0,1,0-.642.63.645.645,0,0,0,.642-.63" transform="translate(-114.637 -114.862)" fill="#ff5252"/>
      <path id="Path_4117" data-name="Path 4117" d="M212.926,211.015a1.917,1.917,0,1,1-1.912,1.912,1.92,1.92,0,0,1,1.912-1.912" transform="translate(-201.794 -202.021)" fill="#ff5252"/>
    </g>
  </g>
</svg>
