<svg id="Group_751" data-name="Group 751" xmlns="http://www.w3.org/2000/svg" xmlns:xlink="http://www.w3.org/1999/xlink" width="26.778" height="21.822" viewBox="0 0 26.778 21.822">
  <defs>
    <clipPath id="clip-path">
      <rect id="Rectangle_959" data-name="Rectangle 959" width="26.778" height="21.822" fill="#ff5252"/>
    </clipPath>
  </defs>
  <g id="Group_750" data-name="Group 750" clip-path="url(#clip-path)">
    <path id="Path_4114" data-name="Path 4114" d="M0,19.365A11.228,11.228,0,0,0,8.051,17.1,5.677,5.677,0,0,1,2.92,13.255a6.235,6.235,0,0,0,2.438-.1A5.554,5.554,0,0,1,1.026,7.7a5.6,5.6,0,0,0,2.443.649,5.517,5.517,0,0,1-2.375-3.9A5.352,5.352,0,0,1,1.8,1.018,15.711,15.711,0,0,0,13.159,6.767,6.635,6.635,0,0,1,13.1,4.643,5.529,5.529,0,0,1,17.036.206a5.467,5.467,0,0,1,5.379,1.383.439.439,0,0,0,.336.091A10.447,10.447,0,0,0,25.783.551c.067-.038.138-.069.256-.128a5.685,5.685,0,0,1-2.262,2.97,10.332,10.332,0,0,0,2.944-.778l.058.065c-.444.519-.865,1.059-1.337,1.55-.374.388-.817.71-1.216,1.076a.528.528,0,0,0-.166.342A15.832,15.832,0,0,1,17.2,19.2a14.179,14.179,0,0,1-6.555,2.472A16.186,16.186,0,0,1,3.993,21.2,15.226,15.226,0,0,1,.109,19.46,1.232,1.232,0,0,1,0,19.365" transform="translate(0 0)" fill="#ff5252"/>
  </g>
</svg>
