<svg xmlns="http://www.w3.org/2000/svg" width="19.632" height="19.644" viewBox="0 0 19.632 19.644">
  <path id="Path_182" data-name="Path 182" d="M180.122,218.31a7.97,7.97,0,0,1-6.6.741,7.7,7.7,0,0,1-4.255-3.268,8.011,8.011,0,1,1,13.591-.215c.06.038.12.078.182.115a27.641,27.641,0,0,1,3.461,2.4,2.733,2.733,0,0,1,1.1,2.3,2.614,2.614,0,0,1-1.7,2.467,2.553,2.553,0,0,1-2.936-.551,12.88,12.88,0,0,1-1.385-1.727c-.483-.68-.913-1.4-1.366-2.1Zm-9.155-6.886a5.024,5.024,0,1,0,5.04-5.013A5.035,5.035,0,0,0,170.968,211.424Z" transform="translate(-167.979 -203.434)" fill="#fff"/>
</svg>
