<svg xmlns="http://www.w3.org/2000/svg" xmlns:xlink="http://www.w3.org/1999/xlink" width="44.177" height="36" viewBox="0 0 44.177 36">
  <defs>
    <clipPath id="clip-path">
      <rect id="Rectangle_959" data-name="Rectangle 959" width="44.177" height="36" fill="#fff"/>
    </clipPath>
  </defs>
  <g id="Group_751" data-name="Group 751" transform="translate(0)">
    <g id="Group_750" data-name="Group 750" transform="translate(0)" clip-path="url(#clip-path)">
      <path id="Path_4114" data-name="Path 4114" d="M0,31.948A18.524,18.524,0,0,0,13.283,28.21a9.366,9.366,0,0,1-8.466-6.343A10.286,10.286,0,0,0,8.839,21.7,9.162,9.162,0,0,1,1.693,12.7a9.233,9.233,0,0,0,4.031,1.07A9.1,9.1,0,0,1,1.806,7.329,8.829,8.829,0,0,1,2.975,1.68a25.92,25.92,0,0,0,18.733,9.484,10.946,10.946,0,0,1-.094-3.5A9.121,9.121,0,0,1,28.106.34,9.019,9.019,0,0,1,36.98,2.622a.724.724,0,0,0,.554.15,17.234,17.234,0,0,0,5-1.864c.111-.062.227-.114.422-.212a9.379,9.379,0,0,1-3.733,4.9,17.045,17.045,0,0,0,4.857-1.284l.095.107c-.732.856-1.427,1.747-2.206,2.557-.617.641-1.348,1.171-2.006,1.776a.872.872,0,0,0-.274.564c-.012,9.361-3.7,16.882-11.322,22.363a23.391,23.391,0,0,1-10.815,4.078,26.7,26.7,0,0,1-10.966-.783A25.119,25.119,0,0,1,.18,32.1,2.032,2.032,0,0,1,0,31.948" transform="translate(0 0)" fill="#fff"/>
    </g>
  </g>
</svg>
