<svg id="Group_6" data-name="Group 6" xmlns="http://www.w3.org/2000/svg" xmlns:xlink="http://www.w3.org/1999/xlink" width="25.93" height="31.107" viewBox="0 0 25.93 31.107">
  <defs>
    <clipPath id="clip-path">
      <rect id="Rectangle_6" data-name="Rectangle 6" width="25.93" height="31.107" fill="#ff5252"/>
    </clipPath>
  </defs>
  <g id="Group_5" data-name="Group 5" clip-path="url(#clip-path)">
    <path id="Path_188" data-name="Path 188" d="M77.63,0c.4.081.811.151,1.213.245a7.545,7.545,0,0,1,5.48,6.088A7.273,7.273,0,0,1,83.252,11.5,7.333,7.333,0,0,1,77.4,14.961,7.493,7.493,0,0,1,75.372.155c.286-.058.574-.1.861-.155Z" transform="translate(-64.149)" fill="#ff5252"/>
    <path id="Path_189" data-name="Path 189" d="M12.959,213.676q-3.69,0-7.38,0a5.81,5.81,0,0,1-3.5-1,4.6,4.6,0,0,1-2.011-3.456,16.2,16.2,0,0,1,1.046-7.5,6.351,6.351,0,0,1,2.854-3.427,5.691,5.691,0,0,1,2.828-.684,2.164,2.164,0,0,1,.931.315c.47.256.9.575,1.361.855a6.914,6.914,0,0,0,7.78-.013c.361-.223.729-.44,1.069-.694a2.6,2.6,0,0,1,2.045-.422,5.765,5.765,0,0,1,4.408,3.16,13.011,13.011,0,0,1,1.419,5.045,24.589,24.589,0,0,1,.12,2.7,4.966,4.966,0,0,1-4.651,5.067,9.889,9.889,0,0,1-1,.054q-3.66.007-7.319,0" transform="translate(0 -182.569)" fill="#ff5252"/>
  </g>
</svg>
