<svg version="1.0" xmlns="http://www.w3.org/2000/svg"
 width="155.000000pt" height="271.000000pt" viewBox="0 0 155.000000 271.000000"
 preserveAspectRatio="xMidYMid meet">

<g transform="translate(0.000000,271.000000) scale(0.100000,-0.100000)"
fill="#94c0d4" stroke="none">
<path d="M672 2408 c-7 -7 -12 -28 -12 -48 0 -104 -61 -213 -170 -303 l-70
-59 0 -937 c0 -715 3 -940 12 -949 17 -17 679 -17 696 0 9 9 12 234 12 949 l0
938 -70 58 c-108 88 -170 192 -170 285 0 73 -8 78 -118 78 -63 0 -102 -4 -110
-12z m158 -121 c15 -74 60 -163 110 -219 l42 -48 -202 0 -202 0 46 51 c53 59
92 137 108 214 l11 55 38 0 c37 0 38 0 49 -53z m-250 -467 l0 -120 -40 0 -40
0 0 120 0 120 40 0 40 0 0 -120z m160 0 l0 -120 -40 0 -40 0 0 120 0 120 40 0
40 0 0 -120z m160 0 l0 -120 -40 0 -40 0 0 120 0 120 40 0 40 0 0 -120z m160
0 l0 -120 -40 0 -40 0 0 120 0 120 40 0 40 0 0 -120z m0 -299 l0 -99 -37 19
c-46 24 -123 25 -166 2 -18 -9 -54 -32 -82 -51 -68 -47 -116 -42 -180 17 -25
23 -56 46 -70 51 -24 9 -25 14 -25 85 l0 75 280 0 280 0 0 -99z m-435 -231
c64 -21 124 -9 206 43 92 59 147 60 207 5 l22 -21 0 -569 0 -568 -280 0 -280
0 0 601 0 602 43 -40 c24 -22 61 -46 82 -53z"/>
</g>
</svg>
